<svg width="85" height="12" viewBox="0 0 85 12" fill="none" xmlns="http://www.w3.org/2000/svg">
<path d="M6.348 6.408H2.436C2.532 7.104 3.204 7.404 3.912 7.404C4.572 7.404 5.076 7.116 5.376 6.828L6.432 8.148C5.616 8.88 4.788 9.144 3.756 9.144C1.644 9.144 0.288 7.74 0.288 5.916C0.288 4.092 1.668 2.676 3.504 2.676C5.256 2.676 6.468 3.828 6.468 5.52C6.468 5.844 6.408 6.216 6.348 6.408ZM3.456 4.332C2.916 4.332 2.436 4.656 2.4 5.208H4.452V5.196C4.428 4.668 3.996 4.332 3.456 4.332ZM9.07828 9.144C7.86628 9.144 7.00228 8.364 7.00228 7.284C7.00228 6.384 7.72228 5.736 9.01828 5.472L10.6143 5.16V5.148C10.6143 4.632 10.1703 4.452 9.65428 4.452C8.95828 4.452 8.44228 4.812 8.11828 5.184L7.02628 3.876C7.55428 3.204 8.55028 2.676 9.76228 2.676C11.5503 2.676 12.6063 3.612 12.6063 5.136V9H10.6743V8.316C10.4343 8.784 9.88228 9.144 9.07828 9.144ZM9.60628 6.612C9.23428 6.684 8.99428 6.852 8.99428 7.152C8.99428 7.452 9.21028 7.644 9.57028 7.644C10.2183 7.644 10.6143 7.2 10.6143 6.516V6.42L9.60628 6.612ZM16.1342 9.144C14.9822 9.144 13.9502 8.64 13.4342 7.728L14.7662 6.708C15.0542 7.2 15.5342 7.584 16.1582 7.584C16.5662 7.584 16.8062 7.452 16.8062 7.236C16.8062 6.912 16.3742 6.804 15.5342 6.504C14.3222 6.072 13.6382 5.568 13.6382 4.584C13.6382 3.348 14.8022 2.676 16.1942 2.676C17.2382 2.676 18.1502 3.192 18.5342 3.924L17.2382 4.86C17.0342 4.512 16.7102 4.236 16.1342 4.236C15.8222 4.236 15.5342 4.368 15.5342 4.596C15.5342 4.824 15.8942 4.896 16.7822 5.256C17.7422 5.652 18.7022 5.964 18.7022 7.188C18.7022 8.28 17.6822 9.144 16.1342 9.144ZM18.8524 2.82H21.0004L22.2964 6.624L23.6284 2.82H25.7284L23.0884 9.3C22.3804 11.028 21.5164 11.544 20.3284 11.544C19.8244 11.544 19.3924 11.4 19.1404 11.28V9.588C19.4524 9.732 19.7764 9.78 20.0044 9.78C20.4724 9.78 20.9884 9.684 21.2404 8.736L18.8524 2.82Z" fill="black"/>
<path d="M29.378 9L27.314 2.82H29.306L30.374 6.624L31.562 2.82H33.026L34.214 6.624L35.282 2.82H37.274L35.21 9H33.35L32.294 5.688L31.238 9H29.378ZM37.4828 5.904C37.4828 4.08 38.8748 2.676 40.8428 2.676C42.8108 2.676 44.2028 4.08 44.2028 5.904C44.2028 7.728 42.8108 9.144 40.8428 9.144C38.8748 9.144 37.4828 7.728 37.4828 5.904ZM39.5948 5.904C39.5948 6.792 40.1468 7.32 40.8428 7.32C41.5388 7.32 42.1028 6.792 42.1028 5.904C42.1028 5.016 41.5388 4.5 40.8428 4.5C40.1468 4.5 39.5948 5.016 39.5948 5.904ZM49.4516 2.724V4.704C49.3556 4.656 49.1876 4.632 48.9836 4.632C47.9396 4.632 47.3396 5.448 47.3396 6.732V9H45.2516V2.82H47.3276V3.876C47.6396 3.132 48.2636 2.676 49.0676 2.676C49.2116 2.676 49.3436 2.688 49.4516 2.724ZM50.2555 9V0.42H52.3435V4.836L54.1555 2.82H56.6155L54.2875 5.376L56.8435 9H54.3475L52.7035 6.528L52.3435 6.924V9H50.2555ZM59.5048 9.144C58.3528 9.144 57.3208 8.64 56.8048 7.728L58.1368 6.708C58.4248 7.2 58.9048 7.584 59.5288 7.584C59.9368 7.584 60.1768 7.452 60.1768 7.236C60.1768 6.912 59.7448 6.804 58.9048 6.504C57.6928 6.072 57.0088 5.568 57.0088 4.584C57.0088 3.348 58.1728 2.676 59.5648 2.676C60.6088 2.676 61.5208 3.192 61.9048 3.924L60.6088 4.86C60.4048 4.512 60.0808 4.236 59.5048 4.236C59.1928 4.236 58.9048 4.368 58.9048 4.596C58.9048 4.824 59.2648 4.896 60.1528 5.256C61.1128 5.652 62.0728 5.964 62.0728 7.188C62.0728 8.28 61.0528 9.144 59.5048 9.144ZM63.111 9V0.42H65.199V3.42C65.607 2.892 66.183 2.676 66.867 2.676C68.367 2.676 69.279 3.648 69.279 5.232V9H67.191V5.604C67.191 4.896 66.843 4.5 66.207 4.5C65.607 4.5 65.199 4.992 65.199 5.748V9H63.111ZM70.225 5.904C70.225 4.08 71.617 2.676 73.585 2.676C75.553 2.676 76.945 4.08 76.945 5.904C76.945 7.728 75.553 9.144 73.585 9.144C71.617 9.144 70.225 7.728 70.225 5.904ZM72.337 5.904C72.337 6.792 72.889 7.32 73.585 7.32C74.281 7.32 74.845 6.792 74.845 5.904C74.845 5.016 74.281 4.5 73.585 4.5C72.889 4.5 72.337 5.016 72.337 5.904ZM77.9938 11.4V2.82H79.9138V3.66C80.4298 2.868 81.2818 2.676 81.7858 2.676C83.3218 2.676 84.6658 3.984 84.6658 5.904C84.6658 7.74 83.4898 9.144 81.7618 9.144C81.1738 9.144 80.4778 8.976 80.0818 8.4V11.4H77.9938ZM80.0338 5.928C80.0338 6.792 80.5858 7.32 81.3178 7.32C82.0018 7.32 82.5658 6.78 82.5658 5.928C82.5658 5.064 82.0018 4.5 81.3178 4.5C80.5858 4.5 80.0338 5.052 80.0338 5.928Z" fill="#007AFF"/>
</svg>
