<svg width="24" height="24" viewBox="0 0 24 24" fill="none" xmlns="http://www.w3.org/2000/svg">
<path d="M12.0004 20.7492L3.47805 11.8606C2.72905 11.1122 2.23469 10.147 2.0651 9.10179C1.8955 8.05662 2.05928 6.98459 2.5332 6.03773V6.03773C2.89057 5.3232 3.41261 4.70381 4.05629 4.23059C4.69998 3.75737 5.4469 3.44387 6.23551 3.31593C7.02411 3.18798 7.83184 3.24924 8.59212 3.49467C9.35241 3.7401 10.0435 4.16267 10.6084 4.72756L12.0004 6.11862L13.3923 4.72756C13.9573 4.16267 14.6484 3.7401 15.4087 3.49467C16.1689 3.24924 16.9767 3.18798 17.7653 3.31593C18.5539 3.44387 19.3008 3.75737 19.9445 4.23059C20.5882 4.70381 21.1102 5.3232 21.4676 6.03773C21.9409 6.98422 22.1044 8.05562 21.935 9.10019C21.7655 10.1448 21.2718 11.1096 20.5236 11.858L12.0004 20.7492Z" stroke="#777777" stroke-width="2" stroke-linecap="round" stroke-linejoin="round"/>
</svg>
