<svg width="22" height="22" viewBox="0 0 22 22" fill="none" xmlns="http://www.w3.org/2000/svg">
<path d="M20.0572 1.94266C19.7544 1.64116 19.3949 1.40265 18.9994 1.24089C18.6039 1.07913 18.1803 0.997334 17.753 1.00023C17.3257 1.00312 16.9032 1.09064 16.51 1.25774C16.1167 1.42484 15.7605 1.6682 15.4618 1.97377L2.57329 14.8623L1 20.9999L7.13759 19.4257L20.0261 6.53718C20.3317 6.23865 20.5752 5.88248 20.7423 5.48928C20.9095 5.09608 20.997 4.67365 20.9999 4.24641C21.0028 3.81917 20.921 3.39559 20.7592 3.00016C20.5974 2.60474 20.3588 2.24531 20.0572 1.94266V1.94266Z" stroke="#007AFF" stroke-width="2" stroke-linecap="round" stroke-linejoin="round"/>
<path d="M15.0938 2.34265L19.6572 6.90607" stroke="#007AFF" stroke-width="2" stroke-linecap="round" stroke-linejoin="round"/>
<path d="M2.57422 14.8614L7.14208 19.4212" stroke="#007AFF" stroke-width="2" stroke-linecap="round" stroke-linejoin="round"/>
</svg>
