<svg width="20" height="22" viewBox="0 0 20 22" fill="none" xmlns="http://www.w3.org/2000/svg">
<g id="User">
<g id="Group">
<path id="Vector" d="M1.25 21V19.75C1.25 18.6009 1.47633 17.4631 1.91605 16.4015C2.35578 15.3399 3.0003 14.3753 3.81282 13.5628C4.62533 12.7503 5.58992 12.1058 6.65152 11.6661C7.71312 11.2263 8.85093 11 10 11C11.1491 11 12.2869 11.2263 13.3485 11.6661C14.4101 12.1058 15.3747 12.7503 16.1872 13.5628C16.9997 14.3753 17.6442 15.3399 18.0839 16.4015C18.5237 17.4631 18.75 18.6009 18.75 19.75V21" stroke="#007AFF" stroke-width="2" stroke-linecap="round" stroke-linejoin="round"/>
<path id="Vector_2" d="M10 11C11.3261 11 12.5979 10.4732 13.5355 9.53553C14.4732 8.59785 15 7.32608 15 6C15 4.67392 14.4732 3.40215 13.5355 2.46447C12.5979 1.52678 11.3261 1 10 1C8.67392 1 7.40215 1.52678 6.46447 2.46447C5.52678 3.40215 5 4.67392 5 6C5 7.32608 5.52678 8.59785 6.46447 9.53553C7.40215 10.4732 8.67392 11 10 11V11Z" stroke="#007AFF" stroke-width="2" stroke-linecap="round" stroke-linejoin="round"/>
</g>
</g>
</svg>
